<svg width="197" height="204" viewBox="0 0 197 204" fill="none" xmlns="http://www.w3.org/2000/svg">
<path id="Vector" d="M40.5659 0.23445C37.6658 0.454545 36.2626 0.94871 34.7999 1.47911C32.4889 2.31711 29.455 4.4126 27.1388 6.77068C25.9391 7.99205 24.3463 10.4598 21.4466 15.5895C18.2294 21.2807 13.9547 28.7061 13.2018 29.9113C12.5977 30.8781 10.9595 33.7156 9.73986 35.9081C9.54553 36.2573 8.88695 37.4002 8.27621 38.4479C7.66547 39.4956 6.64723 41.2734 6.01342 42.3987C4.15898 45.6914 2.99354 47.7144 1.88968 49.5572C0.565866 51.7673 0 52.889 0 53.3034C0 53.5666 0.30898 53.8386 1.52154 54.6428C2.35832 55.1977 3.83924 56.2048 4.81233 56.8805C5.78541 57.5564 8.08994 59.1429 9.93349 60.4063C11.777 61.6696 14.8661 63.7964 16.7981 65.1327C18.7301 66.4687 21.5528 68.395 23.0709 69.4132C26.1805 71.4991 29.1538 73.5499 32.7353 76.0793C34.0758 77.0259 37.0832 79.1012 39.4186 80.6913C44.9137 84.4323 45.7746 85.0263 50.1756 88.1129C53.9627 90.769 54.8151 91.36 57.6064 93.2645C58.5016 93.8755 60.1894 95.039 61.3571 95.8502C64.7797 98.2278 71.1818 102.508 71.3157 102.508C71.5869 102.508 71.6327 106.983 71.6071 130.94C71.5922 144.676 71.6247 156.74 71.6789 157.749C72.0094 163.893 73.4747 167.735 76.6661 170.825C77.4309 171.565 80.6714 173.896 85.1357 176.915C87.3737 178.429 93.537 182.651 94.9019 183.606C97.1684 185.191 101.074 187.878 102.262 188.671C109.097 193.229 113.469 196.184 117.875 199.222C119.33 200.226 121.126 201.459 121.865 201.962C122.605 202.466 123.617 203.156 124.116 203.496C124.709 203.901 125.07 204.067 125.161 203.976C125.353 203.784 125.302 91.9001 125.11 90.1641C124.867 87.9802 123.726 84.9902 122.503 83.334C121.28 81.6777 120.657 81.1883 120.657 81.1883C119.471 79.9749 118.075 78.9069 114.629 76.5767C110.588 73.8435 107.449 71.6917 105.942 70.6223C104.618 69.6826 104.388 69.5238 98.4404 65.4507C95.9493 63.7446 92.2061 61.1776 90.1222 59.7462C88.0384 58.3149 85.3762 56.4998 84.2062 55.7127L82.8074 54.7716C82.5777 54.617 82.6796 54.2588 82.9563 54.2483L84.2444 54.1996C89.5044 54.0003 97.4937 53.9286 126.04 53.8245C146.912 53.7485 156.894 53.6641 157.816 53.5559C160.632 53.2251 163.23 52.267 165.601 50.6847C169.198 48.2839 171.341 45.7314 174.454 40.1411C175.21 38.783 176.435 36.6241 177.176 35.3437C177.917 34.0632 179.235 31.7456 180.105 30.1935C181.903 26.9871 183.985 23.3463 186.197 19.5403C187.031 18.1046 188.418 15.66 189.279 14.1079C190.139 12.5558 191.685 9.85726 192.713 8.11114C196.376 1.89549 197.163 0.443847 196.974 0.255618C196.879 0.160798 47.0323 -0.256298 40.5659 0.23445Z" fill="#FBFDFF"/>
</svg>
